<?xml version="1.0" standalone="no"?>
<!DOCTYPE svg PUBLIC "-//W3C//DTD SVG 20010904//EN"
 "http://www.w3.org/TR/2001/REC-SVG-20010904/DTD/svg10.dtd">
<svg version="1.0" xmlns="http://www.w3.org/2000/svg"
 width="475.000000pt" height="109.000000pt" viewBox="0 0 475.000000 109.000000"
 preserveAspectRatio="xMidYMid meet">

<g transform="translate(0.000000,109.000000) scale(0.100000,-0.100000)"
fill="#000000" stroke="none">
<path d="M194 877 c-2 -7 -3 -69 -2 -138 l3 -124 73 -3 c120 -5 182 42 182
138 0 56 -27 101 -73 123 -44 21 -175 24 -183 4z m167 -66 c18 -14 24 -29 24
-61 0 -53 -29 -80 -86 -80 l-39 0 0 80 0 80 39 0 c23 0 48 -8 62 -19z"/>
<path d="M667 883 c-7 -11 -107 -262 -107 -268 0 -3 15 -5 34 -5 28 0 35 4 40
25 6 23 11 25 61 25 49 0 57 -3 67 -25 9 -19 19 -25 44 -25 l33 0 -23 63 c-78
205 -82 212 -114 215 -17 2 -32 -1 -35 -5z m57 -135 l15 -38 -39 0 -39 0 16
46 c17 50 23 48 47 -8z"/>
<path d="M960 750 l0 -140 30 0 30 0 0 80 c0 44 3 80 8 80 4 -1 32 -36 62 -80
46 -66 60 -79 83 -80 l27 0 0 140 0 140 -30 0 -29 0 -3 -82 -3 -83 -60 83
c-50 69 -64 82 -87 82 l-28 0 0 -140z"/>
<path d="M1350 750 l0 -140 86 0 c81 0 87 1 115 29 34 34 37 59 10 92 -17 21
-17 25 -2 50 20 35 7 78 -29 96 -14 7 -60 13 -102 13 l-78 0 0 -140z m145 60
c0 -22 -5 -25 -42 -28 -42 -3 -43 -2 -43 28 0 30 1 31 43 28 37 -3 42 -6 42
-28z m3 -92 c17 -17 15 -45 -4 -52 -9 -3 -31 -6 -50 -6 -31 0 -34 3 -34 28 0
16 3 32 7 35 11 12 68 8 81 -5z"/>
<path d="M1710 750 l0 -140 95 0 c94 0 95 0 95 25 0 23 -4 24 -62 27 -63 3
-63 3 -63 33 0 29 2 30 53 33 48 3 52 5 52 28 0 23 -3 24 -56 24 -54 0 -55 0
-52 28 3 26 6 27 61 30 53 3 57 5 57 27 0 25 -1 25 -90 25 l-90 0 0 -140z"/>
<path d="M2034 877 c-2 -7 -3 -69 -2 -138 l3 -124 93 -3 92 -3 0 26 c0 24 -2
25 -60 25 l-60 0 0 36 0 35 53 -2 c50 -3 52 -2 55 24 3 26 2 27 -52 27 -56 0
-56 0 -56 30 l0 30 60 0 c57 0 60 1 60 25 0 25 -1 25 -90 25 -65 0 -92 -4 -96
-13z"/>
<path d="M2440 735 l0 -65 1090 0 1090 0 0 65 0 65 -1090 0 -1090 0 0 -65z"/>
<path d="M2925 510 c-47 -10 -75 -32 -96 -72 -24 -47 -24 -89 0 -136 52 -101
217 -100 265 2 54 114 -45 235 -169 206z m95 -80 c13 -13 20 -33 20 -60 0 -53
-27 -80 -80 -80 -53 0 -80 27 -80 80 0 53 27 80 80 80 27 0 47 -7 60 -20z"/>
<path d="M2450 370 l0 -140 35 0 35 0 0 55 c0 51 2 55 24 55 18 0 30 -12 52
-55 27 -52 31 -55 66 -55 l38 0 -36 66 c-33 59 -35 68 -24 92 7 15 21 49 31
75 l19 48 -36 -3 c-33 -3 -39 -7 -51 -43 -14 -43 -36 -65 -65 -65 -15 0 -18 9
-18 55 l0 55 -35 0 -35 0 0 -140z"/>
<path d="M3240 370 l0 -140 35 0 c35 0 35 0 35 45 0 61 26 61 62 0 24 -40 32
-45 63 -45 l36 0 -27 45 c-24 42 -25 47 -11 63 29 32 39 72 26 109 -15 47 -52
63 -144 63 l-75 0 0 -140z m134 80 c18 -6 26 -17 26 -34 0 -32 -22 -48 -61
-44 -30 3 -32 5 -32 41 1 20 2 39 2 42 2 8 38 6 65 -5z"/>
<path d="M3610 370 l0 -140 95 0 c95 0 95 0 95 25 0 24 -2 25 -66 25 l-65 0 3
33 c3 31 4 32 56 35 48 3 52 5 52 28 0 23 -3 24 -55 24 -54 0 -55 0 -55 30 l0
30 60 0 c57 0 60 1 60 25 0 25 -1 25 -90 25 l-90 0 0 -140z"/>
<path d="M3958 370 l-56 -140 34 0 c28 0 36 5 44 25 9 23 15 25 65 25 50 0 56
-2 65 -25 7 -19 17 -25 40 -25 16 0 30 4 30 10 0 5 -23 68 -52 140 -51 128
-52 130 -83 130 -31 0 -32 -2 -87 -140z m116 -17 c7 -21 4 -23 -29 -23 -39 0
-39 0 -13 70 l10 25 13 -25 c7 -14 16 -35 19 -47z"/>
<path d="M4310 370 l0 -140 30 0 29 0 3 83 3 82 58 -82 c51 -72 62 -83 88 -83
l29 0 0 140 0 140 -35 0 -35 0 0 -82 0 -82 -60 82 c-48 64 -66 82 -85 82 l-25
0 0 -140z"/>
<path d="M120 355 l0 -65 1080 0 1080 0 0 65 0 65 -1080 0 -1080 0 0 -65z"/>
</g>
</svg>
